<svg width="256" height="69" viewBox="0 0 256 69" fill="none" xmlns="http://www.w3.org/2000/svg">
<g clip-path="url(#clip0_3_38)">
<path d="M256.089 21.5095C255.986 20.4797 255.689 19.6584 255.2 19.0457C254.504 18.1723 253.434 17.6508 251.939 17.4683C249.671 17.1946 247.12 17.4944 244.568 18.3026C244.723 17.6248 244.851 16.9469 244.967 16.269C245.212 14.7699 244.748 13.2968 243.704 12.2278C242.648 11.1589 241.204 10.6896 239.722 10.9242C239.22 11.0024 238.717 11.0937 238.215 11.211C238.898 8.79933 239.13 6.41373 238.885 4.27581C238.704 2.75059 238.202 1.68163 237.325 0.97768C236.707 0.482309 235.908 0.195515 234.89 0.0781901C229.941 -0.430217 224.941 2.30736 222.054 4.88851C219.168 2.3204 214.168 -0.430217 209.206 0.0781901C208.188 0.182479 207.389 0.482309 206.77 0.97768C205.907 1.68163 205.391 2.76362 205.211 4.27581C204.953 6.50498 205.211 9.00791 205.971 11.5239C205.327 11.3935 204.683 11.2762 204.051 11.1849C202.569 10.9633 201.113 11.4717 200.082 12.5537C199.051 13.6357 198.6 15.1218 198.871 16.6079C198.961 17.1424 199.077 17.6769 199.206 18.2244C196.757 17.4944 194.334 17.2337 192.157 17.4944C190.649 17.6769 189.592 18.1853 188.896 19.0718C188.406 19.6975 188.123 20.5057 188.007 21.5356C187.504 26.5414 190.211 31.5994 192.762 34.5195C190.223 37.4396 187.504 42.4976 188.007 47.5165C188.11 48.5464 188.406 49.3546 188.896 49.9803C189.592 50.8537 190.662 51.3752 192.157 51.5577C194.347 51.8184 196.809 51.5577 199.283 50.8016C199.219 51.1145 199.167 51.4273 199.116 51.7272C198.871 53.2263 199.335 54.6994 200.378 55.7683C201.242 56.6548 202.402 57.1371 203.613 57.1371C203.858 57.1371 204.103 57.1111 204.361 57.072C204.979 56.9807 205.598 56.8503 206.216 56.72C205.288 59.4967 204.915 62.2994 205.211 64.7632C205.391 66.2885 205.894 67.3574 206.77 68.0614C207.389 68.5567 208.175 68.8435 209.206 68.9609C214.155 69.4693 219.168 66.7187 222.054 64.1506C224.941 66.7187 229.954 69.4693 234.89 68.9609C235.908 68.8566 236.72 68.5567 237.325 68.0614C238.189 67.3574 238.704 66.2754 238.885 64.7632C239.181 62.1951 238.782 59.2881 237.776 56.3941C238.537 56.5635 239.297 56.7069 240.057 56.8112C240.289 56.8373 240.509 56.8634 240.74 56.8634C241.978 56.8634 243.15 56.368 244.014 55.4424C245.045 54.3605 245.483 52.8874 245.225 51.3882C245.199 51.2188 245.161 51.0493 245.122 50.8798C247.493 51.5577 249.839 51.7923 251.952 51.5447C253.46 51.3622 254.517 50.8537 255.213 49.9673C255.702 49.3416 255.986 48.5464 256.102 47.5035C256.604 42.4976 253.885 37.4266 251.346 34.5065C253.885 31.5864 256.604 26.5154 256.102 21.5226L256.089 21.5095ZM243.73 21.4443C243.949 21.3531 244.168 21.2749 244.388 21.1966C244.607 21.1184 244.826 21.0402 245.058 20.962C245.251 20.8968 245.457 20.8316 245.65 20.7795C245.895 20.7013 246.14 20.6361 246.385 20.584C246.565 20.5318 246.759 20.4927 246.939 20.4536C247.21 20.3884 247.467 20.3363 247.738 20.2972C247.906 20.2711 248.086 20.232 248.254 20.2189C248.292 20.2189 248.331 20.2189 248.382 20.2059C248.576 20.1798 248.782 20.1538 248.975 20.1407C249.181 20.1147 249.401 20.1016 249.607 20.1016C249.813 20.1016 250.006 20.0886 250.212 20.0886C250.702 20.0886 251.179 20.1147 251.63 20.1668C252.377 20.2581 252.893 20.4536 253.125 20.7404C253.28 20.9359 253.396 21.3009 253.434 21.7963C253.46 22.1092 253.486 22.422 253.486 22.7349C253.486 26.3198 251.54 30.1524 249.426 32.6293C249.349 32.7205 249.272 32.8118 249.194 32.9031C248.666 33.4897 248.099 34.0242 247.493 34.5195C247.326 34.6629 247.145 34.8063 246.965 34.9236C246.784 35.054 246.604 35.1844 246.424 35.3147C246.243 35.4451 246.05 35.5624 245.869 35.6797C245.689 35.7971 245.496 35.9144 245.302 36.0187C245.109 36.136 244.916 36.2403 244.71 36.3315C244.503 36.4228 244.31 36.5271 244.104 36.6183C243.924 36.6966 243.743 36.7748 243.563 36.853C243.511 36.8791 243.46 36.9051 243.408 36.9182C243.228 36.9833 243.06 37.0485 242.88 37.1137C242.725 37.1789 242.57 37.231 242.403 37.2832C242.3 37.3092 242.197 37.3484 242.094 37.3744C242.068 37.3744 242.042 37.3875 242.016 37.4005C241.72 37.4918 241.424 37.57 241.114 37.6482C240.921 37.7003 240.715 37.7394 240.509 37.7785C240.38 37.8046 240.238 37.8307 240.109 37.8437C240.096 37.8437 240.07 37.8437 240.045 37.8437C239.89 37.8698 239.71 37.8959 239.555 37.9089C239.465 37.9219 239.374 37.935 239.271 37.935C239.142 37.948 239.001 37.9611 238.872 37.9741C238.691 37.9871 238.511 38.0002 238.318 38.0002C238.228 38.0002 238.137 38.0002 238.06 38.0002C237.97 38.0002 237.892 38.0002 237.802 38.0002C237.751 38.0002 237.699 38.0002 237.648 38.0002C237.441 38.0002 237.248 38.0002 237.042 37.9871C236.862 37.9871 236.668 37.9741 236.488 37.9611C236.385 37.9611 236.269 37.935 236.166 37.935C236.011 37.9219 235.869 37.9089 235.727 37.8828C235.354 37.8307 234.993 37.7655 234.645 37.6873C234.645 37.6873 234.632 37.6873 234.619 37.6873C234.4 37.6352 234.181 37.583 233.975 37.5309C233.756 37.4657 233.537 37.4005 233.33 37.3353C233.601 36.4098 233.769 35.4451 233.794 34.4413C233.794 34.2849 233.794 34.1284 233.794 33.959C233.794 33.7374 233.794 33.5288 233.782 33.3202C233.717 31.9775 233.421 30.7 232.944 29.5137C233.137 29.3051 233.343 29.0835 233.562 28.8619C233.614 28.8097 233.666 28.7576 233.717 28.7054C235.392 26.9716 237.467 25.0293 239.838 23.478C239.967 23.3997 240.083 23.3215 240.212 23.2433C240.354 23.1521 240.496 23.0738 240.625 22.9826C240.908 22.8131 241.204 22.6437 241.501 22.4872C241.63 22.409 241.771 22.3308 241.913 22.2656C242.506 21.9658 243.099 21.692 243.692 21.4443C243.704 21.4443 243.717 21.4443 243.73 21.4313V21.4443ZM240.135 13.5836C240.753 13.4793 241.372 13.6748 241.81 14.1181C242.248 14.5613 242.442 15.187 242.338 15.8127C242.145 17.0251 241.862 18.2375 241.501 19.4759C240.431 19.9713 239.387 20.5579 238.382 21.2227C235.766 22.9435 233.524 25.0423 231.732 26.8934C231.681 26.9456 231.629 26.9977 231.578 27.0499C230.972 26.1895 230.263 25.4203 229.451 24.7685C229.477 24.7425 229.503 24.7164 229.529 24.6903C231.359 22.8783 233.446 20.61 235.148 17.9637C235.921 16.7644 236.578 15.4999 237.132 14.2223C238.137 13.9486 239.142 13.74 240.135 13.5836ZM216.552 26.6588C216.861 26.4241 217.17 26.2025 217.505 26.02C218.278 25.5637 219.116 25.2378 220.005 25.0293C220.65 24.8728 221.333 24.7946 222.029 24.7946C223.085 24.7946 224.09 24.9771 225.031 25.316C225.933 25.6289 226.758 26.0852 227.506 26.6588C228.369 27.3106 229.116 28.1318 229.696 29.0704C230.212 29.8917 230.611 30.8042 230.843 31.7819C231.024 32.4859 231.114 33.229 231.114 33.9981C231.114 34.7672 231.024 35.5363 230.83 36.2533C230.611 37.1528 230.25 37.9871 229.799 38.7563C229.645 39.017 229.464 39.2777 229.284 39.5123C228.627 40.3988 227.802 41.1679 226.874 41.7676C226.062 42.3021 225.16 42.6932 224.194 42.9278C223.498 43.0973 222.776 43.1885 222.041 43.1885C221.526 43.1885 221.023 43.1494 220.547 43.0582C219.619 42.9017 218.755 42.6149 217.943 42.1978C217.686 42.0674 217.428 41.924 217.196 41.7546C216.268 41.1549 215.443 40.3988 214.786 39.5123C214.606 39.2647 214.425 39.017 214.271 38.7563C213.807 37.9871 213.459 37.1398 213.227 36.2533C213.046 35.5363 212.943 34.7802 212.943 33.9981C212.943 33.2159 213.033 32.4989 213.214 31.7819C213.446 30.8173 213.832 29.8917 214.361 29.0704C214.941 28.1449 215.688 27.3236 216.552 26.6718V26.6588ZM223.627 7.0525C223.717 6.97428 223.807 6.89606 223.897 6.81785C226.346 4.66689 230.147 2.71148 233.678 2.71148C233.988 2.71148 234.297 2.72452 234.606 2.76362C235.096 2.81577 235.444 2.92006 235.65 3.07649C235.934 3.2981 236.127 3.83258 236.217 4.58868C236.269 5.05797 236.294 5.54031 236.294 6.04872C236.294 6.23122 236.294 6.42676 236.282 6.60927C236.269 7.07857 236.217 7.5609 236.153 8.05627C236.114 8.3561 236.063 8.65593 235.998 8.95576C235.972 9.1122 235.934 9.25559 235.908 9.41203C235.805 9.89436 235.676 10.3897 235.521 10.8851C235.483 11.0155 235.444 11.1328 235.405 11.2632C235.367 11.4196 235.315 11.576 235.251 11.7325C235.251 11.7846 235.225 11.8237 235.199 11.8758C235.186 11.915 235.173 11.9671 235.148 12.0192C235.096 12.1626 235.044 12.306 234.993 12.4494C234.941 12.5928 234.877 12.7362 234.825 12.8796C234.722 13.1403 234.606 13.388 234.49 13.6488C234.426 13.8052 234.361 13.9486 234.284 14.092C234.142 14.3918 234.001 14.6786 233.833 14.9654C233.756 15.1088 233.678 15.2522 233.588 15.4086C233.485 15.6042 233.369 15.7867 233.253 15.9822C233.137 16.1647 233.021 16.3603 232.905 16.5428C231.359 18.9544 229.439 21.0533 227.738 22.7349C227.673 22.8001 227.609 22.8653 227.531 22.9304C227.402 23.0608 227.274 23.1912 227.145 23.3085C225.663 22.5785 224 22.1483 222.248 22.1222C222.183 22.1222 222.106 22.1222 222.029 22.1222C221.9 22.1222 221.771 22.1222 221.655 22.1222C220.753 22.1483 219.864 22.2786 219.026 22.5003C219.026 22.4872 219.026 22.4742 219.026 22.4611C218.987 22.3178 218.949 22.1744 218.91 22.031C218.858 21.8093 218.807 21.5877 218.768 21.3661C218.742 21.2488 218.73 21.1315 218.704 21.0141C218.678 20.8968 218.665 20.7925 218.652 20.6752C218.601 20.3232 218.562 19.9713 218.549 19.6193C218.549 19.4759 218.523 19.3325 218.523 19.1891C218.523 19.0457 218.523 18.9023 218.523 18.7589C218.523 18.5503 218.523 18.3548 218.536 18.1462C218.536 18.055 218.536 17.9637 218.536 17.8594C218.536 17.7682 218.536 17.6639 218.562 17.5726C218.562 17.4944 218.562 17.4162 218.575 17.351C218.575 17.3119 218.575 17.2598 218.575 17.2206C218.588 17.0642 218.601 16.9208 218.626 16.7644C218.626 16.6992 218.639 16.634 218.652 16.5688C218.652 16.5167 218.665 16.4646 218.678 16.4124C218.691 16.282 218.717 16.1647 218.742 16.0344C218.781 15.7736 218.833 15.5129 218.897 15.2652C218.949 15.0436 219 14.809 219.065 14.5874C219.284 13.7661 219.58 12.9578 219.928 12.1887C220.031 11.941 220.147 11.7064 220.276 11.4717C220.392 11.2501 220.508 11.0285 220.637 10.8199C220.663 10.7547 220.701 10.6896 220.74 10.6374C220.83 10.4679 220.933 10.2985 221.049 10.129C221.217 9.84222 221.41 9.5815 221.603 9.32078C221.732 9.13827 221.874 8.95576 222.003 8.78629C222.493 8.1736 223.021 7.60001 223.601 7.06553L223.627 7.0525ZM207.853 4.57564C207.943 3.81955 208.136 3.2981 208.42 3.06345C208.613 2.89398 208.961 2.7897 209.464 2.75059C209.773 2.72452 210.082 2.69844 210.392 2.69844C213.936 2.69844 217.724 4.65386 220.173 6.80481C218.162 9.21649 216.784 12.1235 216.191 15.2C216.01 16.1386 215.894 17.0903 215.869 18.055C215.869 18.2766 215.869 18.5112 215.869 18.7459C215.869 20.1016 216.023 21.4313 216.333 22.6958C214.631 21.0011 212.698 18.9023 211.165 16.5037C210.997 16.2299 210.83 15.9692 210.675 15.6954C210.031 14.5874 209.49 13.4532 209.051 12.306C208.033 9.63364 207.595 6.92213 207.879 4.58868L207.853 4.57564ZM201.989 14.4048C202.35 14.0268 202.84 13.8182 203.355 13.8182C203.446 13.8182 203.549 13.8182 203.652 13.8443C204.773 14.0138 205.92 14.2484 207.08 14.5613C207.595 15.7345 208.214 16.8817 208.923 17.9767C210.624 20.6231 212.711 22.8913 214.541 24.7034C214.567 24.7294 214.593 24.7685 214.619 24.7816C213.82 25.4334 213.098 26.2155 212.492 27.0629C212.441 27.0107 212.402 26.9586 212.35 26.9065C210.559 25.0553 208.317 22.9435 205.701 21.2227C204.592 20.4927 203.433 19.8539 202.247 19.3325C201.938 18.2505 201.68 17.1685 201.487 16.1126C201.371 15.4868 201.551 14.8611 201.989 14.4048ZM190.597 22.7219C190.597 22.409 190.61 22.0961 190.649 21.7833C190.7 21.2879 190.803 20.9359 190.958 20.7273C191.177 20.4406 191.705 20.245 192.453 20.1538C193.316 20.0495 194.244 20.0495 195.198 20.1538C195.327 20.1538 195.443 20.1798 195.572 20.1929C195.713 20.2059 195.855 20.2189 195.997 20.2581C196.061 20.2581 196.139 20.2711 196.203 20.2841C196.435 20.3102 196.667 20.3623 196.912 20.4145C197.131 20.4536 197.337 20.5057 197.556 20.5579C198.085 20.6882 198.6 20.8316 199.128 21.0141C199.257 21.0533 199.386 21.1054 199.528 21.1445C199.708 21.2097 199.902 21.2749 200.082 21.3531C200.378 21.4704 200.675 21.5877 200.958 21.7181C201.1 21.7833 201.242 21.8485 201.397 21.9136C201.693 22.044 201.976 22.1874 202.26 22.3438C202.402 22.422 202.543 22.5003 202.698 22.5785C202.982 22.7349 203.265 22.8913 203.549 23.0738C203.613 23.0999 203.665 23.139 203.729 23.1912C203.909 23.2955 204.09 23.4128 204.257 23.5301C206.642 25.0944 208.716 27.0368 210.379 28.7576C210.443 28.8228 210.508 28.8879 210.559 28.9531C210.765 29.1617 210.959 29.3572 211.139 29.5658C210.649 30.8042 210.353 32.1339 210.301 33.5418C210.301 33.6983 210.301 33.8547 210.301 34.0111C210.301 34.2327 210.301 34.4413 210.314 34.6499C210.366 35.6015 210.52 36.514 210.778 37.3875C210.649 37.4266 210.508 37.4787 210.379 37.5178C210.289 37.5439 210.198 37.57 210.108 37.596C209.979 37.6221 209.863 37.6612 209.734 37.6873C209.606 37.7134 209.49 37.7525 209.374 37.7655C209.219 37.7916 209.064 37.8307 208.91 37.8568C208.819 37.8698 208.742 37.8828 208.652 37.8959C208.536 37.9219 208.433 37.935 208.317 37.948C207.956 38.0002 207.608 38.0393 207.234 38.0523C207.157 38.0523 207.08 38.0523 206.989 38.0653C206.809 38.0653 206.642 38.0653 206.461 38.0653C206.255 38.0653 206.049 38.0653 205.843 38.0523C205.688 38.0523 205.533 38.0523 205.391 38.0262C205.366 38.0262 205.353 38.0262 205.327 38.0262C205.198 38.0262 205.056 38.0002 204.928 37.9871C204.824 37.9871 204.708 37.9611 204.605 37.948C204.489 37.948 204.386 37.9219 204.283 37.9089C204.27 37.9089 204.257 37.9089 204.232 37.9089C204.206 37.9089 204.167 37.9089 204.141 37.8959C204 37.8698 203.858 37.8568 203.716 37.8307C203.368 37.7655 203.02 37.6873 202.672 37.596C202.531 37.5569 202.389 37.5309 202.26 37.4787C201.912 37.3875 201.564 37.2701 201.229 37.1398C201.126 37.1007 201.01 37.0616 200.907 37.0094C200.829 36.9833 200.752 36.9573 200.688 36.9182C200.559 36.866 200.417 36.8139 200.288 36.7487C200.159 36.6966 200.043 36.6444 199.927 36.5792C199.786 36.514 199.657 36.4489 199.528 36.3837C199.283 36.2664 199.038 36.136 198.793 35.9926C198.613 35.8883 198.42 35.771 198.239 35.6667C198.033 35.5363 197.84 35.419 197.646 35.2887C197.466 35.1713 197.298 35.041 197.131 34.9106C196.951 34.7803 196.77 34.6369 196.603 34.5065C195.997 34.0111 195.43 33.4766 194.901 32.89C194.824 32.7988 194.747 32.7075 194.67 32.6163C192.543 30.1394 190.61 26.2938 190.61 22.7219H190.597ZM200.855 47.347C200.585 47.4644 200.314 47.5817 200.043 47.686H200.018C199.463 47.9076 198.909 48.0901 198.368 48.2465C198.149 48.3117 197.93 48.3769 197.711 48.429C197.543 48.4681 197.376 48.5203 197.221 48.5464C197.195 48.5464 197.157 48.5594 197.118 48.5724C196.925 48.6115 196.744 48.6506 196.551 48.6898C196.461 48.7028 196.383 48.7158 196.293 48.7289C196.074 48.768 195.855 48.8071 195.636 48.8201C195.507 48.8462 195.378 48.8592 195.249 48.8592C195.133 48.8723 195.03 48.8853 194.914 48.8853H194.889C194.734 48.8853 194.579 48.9114 194.425 48.9114C193.755 48.9374 193.11 48.9114 192.492 48.8462C191.744 48.7549 191.229 48.5594 190.997 48.2726C190.829 48.0771 190.726 47.7251 190.687 47.2167C190.662 46.9038 190.636 46.5909 190.636 46.2781C190.636 42.6932 192.569 38.8605 194.695 36.3837C194.876 36.5271 195.043 36.6705 195.224 36.8139C195.327 36.8921 195.43 36.9703 195.533 37.0485C195.713 37.1789 195.894 37.3223 196.074 37.4526C196.255 37.583 196.448 37.7134 196.628 37.8307C196.809 37.948 197.002 38.0653 197.182 38.1696C197.414 38.313 197.646 38.4564 197.891 38.5737C197.981 38.6259 198.059 38.665 198.149 38.7041C198.523 38.8997 198.922 39.0952 199.322 39.2647C199.515 39.3559 199.721 39.4341 199.915 39.5123C200.172 39.6166 200.43 39.7079 200.688 39.7991C200.829 39.8513 200.971 39.8904 201.1 39.9295C201.255 39.9816 201.397 40.0208 201.551 40.0599C201.628 40.0859 201.706 40.112 201.783 40.125C201.809 40.125 201.848 40.1511 201.873 40.1511C202.002 40.1902 202.131 40.2163 202.26 40.2424C202.286 40.2424 202.299 40.2554 202.324 40.2554C202.505 40.3075 202.698 40.3467 202.891 40.3858C203.085 40.4249 203.278 40.464 203.484 40.4901C203.574 40.5031 203.665 40.5161 203.755 40.5292C203.897 40.5552 204.038 40.5683 204.18 40.5943C204.18 40.5943 204.193 40.5943 204.206 40.5943C204.245 40.5943 204.296 40.5943 204.335 40.6074H204.361C204.567 40.6334 204.786 40.6595 204.992 40.6726C205.16 40.6856 205.327 40.6986 205.495 40.7117C205.559 40.7117 205.636 40.7117 205.714 40.7117C205.959 40.7117 206.216 40.7247 206.461 40.7247C207.801 40.7247 209.116 40.5683 210.366 40.2554C208.691 41.9762 206.616 43.9316 204.245 45.4829C204.077 45.5872 203.922 45.6915 203.755 45.7957C203.613 45.874 203.484 45.9652 203.342 46.0434C203.175 46.1477 203.007 46.252 202.827 46.3433C202.659 46.4345 202.492 46.5258 202.324 46.617C202.067 46.7474 201.809 46.8777 201.551 47.0081C201.319 47.1124 201.087 47.2297 200.868 47.321L200.855 47.347ZM203.922 54.3865C203.304 54.4908 202.685 54.2953 202.247 53.839C201.809 53.3958 201.616 52.7701 201.719 52.1443C201.848 51.323 202.028 50.5018 202.234 49.6675C203.407 49.133 204.58 48.5073 205.688 47.7772C208.549 45.9 210.959 43.5535 212.827 41.5851L212.917 41.4938C213.575 42.3151 214.335 43.0451 215.198 43.6578C215.16 43.6969 215.108 43.7491 215.07 43.7882C213.124 45.6784 210.778 48.1292 208.91 51.0493C208.381 51.8836 207.892 52.744 207.479 53.6044C206.281 53.9433 205.095 54.204 203.922 54.3996V54.3865ZM210.379 66.3015C210.069 66.3015 209.76 66.2885 209.451 66.2494C208.948 66.1972 208.613 66.0929 208.407 65.9365C208.124 65.7149 207.917 65.1804 207.84 64.4243C207.763 63.7725 207.737 63.0816 207.776 62.3776C207.776 62.1691 207.801 61.9475 207.814 61.7389C207.827 61.5303 207.853 61.3087 207.879 61.1001C207.904 60.8785 207.943 60.6569 207.969 60.4483C207.995 60.2919 208.033 60.1224 208.059 59.966C208.085 59.8095 208.124 59.6401 208.162 59.4706C208.188 59.3533 208.214 59.2359 208.239 59.1317C208.291 58.91 208.355 58.6884 208.42 58.4668C208.484 58.2452 208.549 58.0236 208.626 57.802C208.691 57.5804 208.768 57.3587 208.858 57.1241C208.935 56.9025 209.013 56.6809 209.103 56.4593C209.18 56.2507 209.27 56.0551 209.348 55.8466C209.722 54.9992 210.147 54.1519 210.624 53.3306C210.778 53.0568 210.946 52.7831 211.113 52.5224C211.165 52.4441 211.204 52.3659 211.268 52.3007C211.268 52.3007 211.268 52.2747 211.294 52.2747C211.294 52.2747 211.294 52.2486 211.319 52.2486C211.487 51.9748 211.667 51.7141 211.861 51.4664C212.054 51.1796 212.26 50.9059 212.466 50.6452C212.789 50.215 213.124 49.7978 213.472 49.3937C213.6 49.2373 213.716 49.0939 213.858 48.9505C214.013 48.768 214.168 48.5985 214.322 48.416C214.541 48.1683 214.76 47.9337 214.992 47.699C215.43 47.2297 215.881 46.7735 216.307 46.3563C216.242 46.5909 216.204 46.8256 216.152 47.0602C216.126 47.2167 216.088 47.3731 216.062 47.5165C216.036 47.6599 216.01 47.8033 215.997 47.9597C215.985 48.064 215.972 48.1683 215.959 48.2726C215.933 48.416 215.92 48.5594 215.907 48.7028C215.894 48.8592 215.881 49.0157 215.869 49.1851C215.869 49.2764 215.856 49.3546 215.856 49.4458C215.856 49.498 215.856 49.5501 215.856 49.6023C215.856 49.7848 215.843 49.9803 215.843 50.1628C215.843 50.215 215.843 50.2541 215.843 50.3062C215.843 50.5539 215.843 50.8146 215.856 51.0623C215.856 51.1145 215.856 51.1666 215.856 51.2188C215.856 51.3752 215.869 51.5447 215.881 51.7011C215.894 51.9227 215.92 52.1574 215.946 52.379C215.946 52.4572 215.959 52.5354 215.972 52.6136C215.985 52.7701 216.01 52.9265 216.036 53.0829C216.036 53.0829 216.036 53.1611 216.049 53.1872C216.075 53.3436 216.101 53.5001 216.126 53.6435C216.165 53.8651 216.217 54.0867 216.255 54.2953C216.307 54.5169 216.358 54.7255 216.41 54.934C216.436 55.0514 216.474 55.1687 216.5 55.273C216.539 55.4294 216.59 55.5858 216.629 55.7292C216.655 55.8466 216.693 55.9639 216.745 56.0812C216.874 56.4984 217.028 56.9025 217.196 57.3066C217.222 57.3979 217.26 57.4761 217.299 57.5673C217.363 57.7107 217.428 57.8541 217.492 57.9975C217.544 58.1279 217.608 58.2452 217.66 58.3625C217.699 58.4538 217.737 58.545 217.789 58.6233C217.853 58.7536 217.918 58.8709 217.969 58.9883C218.085 59.2099 218.201 59.4315 218.33 59.6401C218.446 59.8486 218.575 60.0442 218.704 60.2528C218.781 60.3831 218.858 60.5135 218.949 60.6308C218.974 60.696 219.026 60.7481 219.065 60.8003C219.09 60.8524 219.129 60.9046 219.168 60.9567C219.271 61.1001 219.374 61.2435 219.477 61.3999C219.541 61.4912 219.606 61.5694 219.67 61.6476C219.812 61.8301 219.967 62.0257 220.121 62.2082C217.673 64.3591 213.884 66.3145 210.34 66.3145L210.379 66.3015ZM236.217 64.4243C236.127 65.1804 235.934 65.7019 235.65 65.9365C235.457 66.0929 235.096 66.2103 234.606 66.2494C234.297 66.2754 233.988 66.3015 233.678 66.3015C230.134 66.3015 226.346 64.3331 223.897 62.1951C223.807 62.1169 223.717 62.0387 223.627 61.9605C223.047 61.426 222.518 60.8524 222.029 60.2397C221.887 60.0703 221.745 59.8877 221.629 59.7052C221.5 59.5227 221.371 59.3402 221.242 59.1577C221.114 58.9752 220.998 58.7797 220.882 58.5972C220.753 58.4016 220.637 58.1931 220.534 57.9975C220.482 57.9063 220.443 57.815 220.392 57.7238C220.173 57.3327 219.98 56.9286 219.812 56.5114C219.735 56.3419 219.657 56.1594 219.593 55.9769C219.528 55.7944 219.451 55.6119 219.4 55.4294C219.348 55.299 219.309 55.1687 219.271 55.0383C219.206 54.8428 219.142 54.6342 219.09 54.4387C218.897 53.7478 218.755 53.0308 218.652 52.3138C218.626 52.0922 218.601 51.8836 218.575 51.662C218.536 51.2057 218.51 50.7364 218.51 50.2671C218.51 49.9803 218.51 49.7066 218.536 49.4198C218.536 49.2633 218.549 49.1199 218.562 48.9635C218.562 48.794 218.588 48.6376 218.614 48.4812C218.614 48.3899 218.639 48.2987 218.652 48.1944C218.652 48.0901 218.678 47.9858 218.704 47.8815C218.73 47.7251 218.768 47.5686 218.794 47.4122C218.82 47.2819 218.845 47.1515 218.871 47.0211C218.961 46.6561 219.052 46.2911 219.181 45.9261L219.271 45.6393C219.271 45.6393 219.284 45.5741 219.297 45.5481C220.096 45.7436 220.933 45.8479 221.784 45.8609C221.848 45.8609 221.925 45.8609 222.003 45.8609C222.132 45.8609 222.261 45.8609 222.389 45.8609C223.794 45.8218 225.147 45.522 226.384 45.0136L226.565 45.183C226.707 45.3134 226.848 45.4438 226.977 45.5872C227.222 45.8218 227.467 46.0565 227.712 46.3041C227.931 46.5127 228.15 46.7343 228.356 46.956C228.382 46.982 228.395 46.9951 228.421 47.0211C228.614 47.2167 228.82 47.4253 229.013 47.6469C229.194 47.8294 229.361 48.0249 229.542 48.2074C229.606 48.2726 229.671 48.3508 229.735 48.429C230.341 49.0939 230.946 49.8109 231.513 50.5539C231.629 50.6973 231.732 50.8407 231.836 50.9841C231.913 51.0754 231.977 51.1796 232.055 51.2709C232.209 51.4925 232.364 51.7141 232.519 51.9227C232.647 52.1052 232.763 52.3007 232.892 52.4833C233.511 53.461 234.065 54.4778 234.529 55.4946C234.593 55.651 234.671 55.8075 234.735 55.9639C234.993 56.5635 235.212 57.1632 235.405 57.7629C235.47 57.9584 235.534 58.154 235.586 58.3625C235.715 58.7666 235.805 59.1708 235.895 59.5879C235.908 59.6531 235.921 59.7183 235.934 59.7835C235.947 59.8486 235.959 59.9008 235.972 59.966C235.998 60.0703 236.011 60.1876 236.037 60.2919C236.05 60.3701 236.063 60.4483 236.075 60.5135C236.075 60.5396 236.088 60.5787 236.088 60.6047C236.114 60.7612 236.14 60.9176 236.153 61.074C236.178 61.2956 236.204 61.5042 236.217 61.7128C236.243 61.9214 236.256 62.143 236.256 62.3516C236.294 63.0555 236.256 63.7464 236.191 64.3982L236.217 64.4243ZM242.068 53.5653C241.63 54.0215 241.024 54.2171 240.405 54.1258C239.104 53.9433 237.776 53.6565 236.423 53.2785C236.037 52.5224 235.611 51.7663 235.148 51.0363C233.279 48.1292 230.946 45.6654 228.988 43.7882C228.936 43.736 228.897 43.6969 228.846 43.6578C229.709 43.0451 230.47 42.3151 231.127 41.4938C231.153 41.5199 231.178 41.546 231.217 41.5851C233.073 43.5535 235.495 45.9 238.369 47.7903C239.581 48.5855 240.844 49.2633 242.119 49.8239C242.3 50.5148 242.442 51.2057 242.558 51.8836C242.674 52.5093 242.493 53.1351 242.055 53.5783L242.068 53.5653ZM253.46 46.2911C253.46 46.604 253.447 46.9168 253.408 47.2297C253.357 47.7381 253.254 48.0771 253.099 48.2856C252.88 48.5724 252.352 48.781 251.604 48.8592C250.96 48.9374 250.277 48.9635 249.581 48.9244C249.375 48.9244 249.156 48.8983 248.95 48.8853C248.112 48.8201 247.236 48.6637 246.359 48.4421C246.153 48.3899 245.934 48.3378 245.728 48.2726C245.264 48.1422 244.8 47.9858 244.336 47.8163C244.284 47.8033 244.246 47.7772 244.181 47.7512C243.975 47.6729 243.769 47.5947 243.563 47.5035C243.447 47.4513 243.318 47.4122 243.202 47.347C243.086 47.2949 242.957 47.2427 242.841 47.1906C242.712 47.1385 242.583 47.0733 242.454 47.0081C242.39 46.982 242.326 46.9429 242.261 46.9168C241.849 46.7213 241.423 46.4997 241.024 46.265C240.612 46.0304 240.212 45.7827 239.813 45.522C237.429 43.9577 235.354 42.0153 233.691 40.2945C234.954 40.6074 236.256 40.7638 237.596 40.7638C237.841 40.7638 238.073 40.7638 238.318 40.7508C238.382 40.7508 238.447 40.7508 238.511 40.7508H238.55C238.769 40.7508 238.988 40.7247 239.207 40.6986C239.426 40.6856 239.645 40.6595 239.851 40.6334C239.941 40.6334 240.032 40.6074 240.135 40.5943C240.161 40.5943 240.186 40.5943 240.212 40.5943C240.367 40.5683 240.521 40.5422 240.676 40.5161C240.856 40.4901 241.024 40.4509 241.204 40.4118C241.256 40.4118 241.295 40.3988 241.346 40.3858C241.372 40.3858 241.398 40.3858 241.411 40.3727C241.591 40.3336 241.784 40.2945 241.965 40.2424C242.055 40.2293 242.132 40.2033 242.21 40.1772C242.3 40.1642 242.377 40.1381 242.454 40.112C242.944 39.9816 243.408 39.8252 243.872 39.6427C244.04 39.5775 244.194 39.5123 244.349 39.4602C244.388 39.4602 244.439 39.4341 244.478 39.4081C244.568 39.3689 244.658 39.3298 244.761 39.2907C244.955 39.2125 245.135 39.1343 245.315 39.043C245.47 38.9648 245.625 38.8866 245.779 38.8084C245.882 38.7563 245.985 38.7041 246.089 38.652C246.978 38.1827 247.828 37.6352 248.627 37.0094C248.705 36.9573 248.782 36.8921 248.859 36.8269C249.027 36.6966 249.194 36.5532 249.362 36.4098C251.488 38.8866 253.421 42.7192 253.421 46.3041L253.46 46.2911Z" fill="#E6AA68"/>
<path d="M67.5923 21.2487V23.9472H51.0712V32.6814H64.7443V35.3407H51.0712V47.2818H46.9989V21.2487H67.5923Z" fill="#727D71"/>
<path d="M76.9354 21.2488V44.5834H92.2193V47.2818H72.8115V21.2488H76.9354Z" fill="#727D71"/>
<path d="M117.31 21.2488V23.9473H102.181V32.6423H115.184V35.3408H102.181V44.5834H117.671V47.2818H98.1086V21.2488H117.31Z" fill="#727D71"/>
<path d="M123.29 39.2516V21.2357H127.362V39.1734C127.362 43.749 130.867 45.1309 135.726 45.1309C140.584 45.1309 143.729 43.2537 143.729 39.3689V21.2357H147.801V39.9164C147.801 44.9614 142.788 47.7511 135.468 47.7511C127.414 47.7511 123.29 45.3264 123.29 39.2516Z" fill="#727D71"/>
<path d="M166.912 21.2488C174.142 21.2488 178.575 23.1651 178.575 28.2622C178.575 32.7205 175.018 34.7281 172.016 35.432C173.871 35.8622 174.335 36.4489 175.418 38.1696L180.946 47.2949H176.616L171.552 39.0691C170.675 37.6612 169.696 36.5662 167.531 36.5662H160.095V47.2949H156.023V21.2618H166.912V21.2488ZM174.348 28.536C174.348 24.1558 170.843 23.8039 164.593 23.8039H160.108V34.1415H166.822C171.474 34.1415 174.361 32.1469 174.361 28.536H174.348Z" fill="#727D71"/>
<path d="M3.35062 21.2488V40.2163H15.7608V42.4063H0V21.2357H3.35062V21.2488Z" fill="#727D71"/>
<path d="M31.7148 21.2488L41.7796 42.4194H38.2614L35.1943 35.9274H24.2404L21.2635 42.4194H17.9515L27.6812 21.2488H31.702H31.7148ZM29.7045 23.504H29.6658L25.0523 33.8547H34.4082L29.7045 23.504Z" fill="#727D71"/>
<path d="M41.7796 44.8962H0V47.2818H41.7796V44.8962Z" fill="#727D71"/>
</g>
<defs>
<clipPath id="clip0_3_38">
<rect width="256" height="69" fill="white"/>
</clipPath>
</defs>
</svg>
