<svg width="43" height="38" viewBox="0 0 43 38" fill="none" xmlns="http://www.w3.org/2000/svg">
<path fill-rule="evenodd" clip-rule="evenodd" d="M26.9294 0.447189C27.9288 -0.293517 29.3468 -0.0933699 30.0965 0.894247L36.2046 8.94128H36.2118C40.3712 8.94128 43.5521 12.6047 42.9196 16.6669L40.4834 32.3139C39.9739 35.5852 37.1253 38 33.7754 38H9.22447C5.87474 38 3.026 35.5852 2.51666 32.3139L0.0803746 16.6669C-0.552105 12.6047 2.62871 8.94128 6.78821 8.94128H6.79536L12.9034 0.894247C13.6531 -0.0933699 15.0711 -0.293517 16.0706 0.447189C17.07 1.1879 17.2727 2.58897 16.523 3.57659L12.451 8.94128H30.549L26.4769 3.57659C25.7272 2.58897 25.9299 1.1879 26.9294 0.447189ZM7.90013 13.4118C7.91655 13.412 7.93298 13.412 7.94938 13.4118H35.0506H35.0999H36.2118C37.5984 13.4118 38.6584 14.633 38.4476 15.9871L36.0114 31.6341C35.8417 32.7245 34.892 33.5294 33.7754 33.5294H9.22447C8.10789 33.5294 7.15832 32.7245 6.98853 31.6341L4.55227 15.9871C4.34143 14.633 5.4017 13.4118 6.78821 13.4118H7.90013Z" fill="#E6AA68"/>
<path d="M27.986 20.0491C27.9664 19.855 27.9099 19.7003 27.8166 19.5849C27.6839 19.4203 27.4801 19.3221 27.1952 19.2877C26.763 19.2362 26.2767 19.2926 25.7904 19.4449C25.8199 19.3172 25.8445 19.1895 25.8666 19.0618C25.9132 18.7794 25.8248 18.5018 25.6259 18.3005C25.4245 18.0991 25.1495 18.0107 24.867 18.0549C24.7713 18.0696 24.6755 18.0868 24.5797 18.1089C24.7099 17.6546 24.7541 17.2051 24.7074 16.8024C24.673 16.515 24.5772 16.3137 24.4102 16.181C24.2924 16.0877 24.1401 16.0337 23.9461 16.0116C23.003 15.9158 22.0501 16.4315 21.5 16.9178C20.9499 16.434 19.997 15.9158 19.0515 16.0116C18.8575 16.0312 18.7052 16.0877 18.5873 16.181C18.4228 16.3137 18.3246 16.5175 18.2902 16.8024C18.2411 17.2223 18.2902 17.6939 18.4351 18.1678C18.3123 18.1433 18.1895 18.1212 18.0692 18.104C17.7867 18.0622 17.5092 18.158 17.3127 18.3619C17.1163 18.5657 17.0303 18.8457 17.0819 19.1256C17.0991 19.2263 17.1212 19.327 17.1457 19.4302C16.6791 19.2926 16.2174 19.2435 15.8024 19.2926C15.515 19.327 15.3137 19.4228 15.181 19.5898C15.0877 19.7077 15.0337 19.8599 15.0116 20.054C14.9158 20.997 15.4315 21.9499 15.9178 22.5C15.434 23.0501 14.9158 24.003 15.0116 24.9485C15.0312 25.1426 15.0877 25.2948 15.181 25.4127C15.3137 25.5772 15.5175 25.6755 15.8024 25.7099C16.2199 25.759 16.6889 25.7099 17.1605 25.5674C17.1482 25.6264 17.1384 25.6853 17.1285 25.7418C17.0819 26.0242 17.1703 26.3017 17.3692 26.5031C17.5338 26.6701 17.7548 26.761 17.9857 26.761C18.0323 26.761 18.079 26.7561 18.1281 26.7487C18.246 26.7315 18.3639 26.7069 18.4817 26.6824C18.3049 27.2055 18.2337 27.7335 18.2902 28.1977C18.3246 28.485 18.4203 28.6864 18.5873 28.819C18.7052 28.9123 18.855 28.9664 19.0515 28.9885C19.9946 29.0842 20.9499 28.5661 21.5 28.0822C22.0501 28.5661 23.0055 29.0842 23.9461 28.9885C24.1401 28.9688 24.2948 28.9123 24.4102 28.819C24.5748 28.6864 24.673 28.4826 24.7074 28.1977C24.7639 27.7139 24.6878 27.1662 24.4962 26.621C24.6411 26.6529 24.786 26.6799 24.9309 26.6996C24.9751 26.7045 25.0168 26.7094 25.0611 26.7094C25.2968 26.7094 25.5203 26.6161 25.6848 26.4417C25.8813 26.2379 25.9648 25.9604 25.9157 25.6779C25.9108 25.646 25.9034 25.6141 25.8961 25.5822C26.3479 25.7099 26.7949 25.7541 27.1977 25.7074C27.485 25.673 27.6864 25.5772 27.819 25.4102C27.9123 25.2924 27.9664 25.1426 27.9885 24.9461C28.0842 24.003 27.5661 23.0477 27.0822 22.4976C27.5661 21.9474 28.0842 20.9921 27.9885 20.0515L27.986 20.0491ZM25.6308 20.0368C25.6726 20.0196 25.7143 20.0048 25.7561 19.9901C25.7978 19.9754 25.8396 19.9606 25.8838 19.9459C25.9206 19.9336 25.9599 19.9213 25.9967 19.9115C26.0434 19.8968 26.0901 19.8845 26.1367 19.8747C26.1711 19.8649 26.2079 19.8575 26.2423 19.8501C26.2939 19.8378 26.343 19.828 26.3946 19.8207C26.4265 19.8157 26.4609 19.8084 26.4928 19.8059C26.5002 19.8059 26.5076 19.8059 26.5174 19.8035C26.5542 19.7986 26.5935 19.7936 26.6304 19.7912C26.6697 19.7863 26.7114 19.7838 26.7507 19.7838C26.79 19.7838 26.8268 19.7814 26.8661 19.7814C26.9595 19.7814 27.0503 19.7863 27.1363 19.7961C27.2787 19.8133 27.377 19.8501 27.4212 19.9042C27.4506 19.941 27.4727 20.0098 27.4801 20.1031C27.485 20.162 27.4899 20.221 27.4899 20.2799C27.4899 20.9553 27.1191 21.6773 26.7163 22.1439C26.7016 22.1611 26.6868 22.1783 26.6721 22.1955C26.5714 22.306 26.4634 22.4067 26.3479 22.5C26.316 22.527 26.2816 22.5541 26.2472 22.5762C26.2129 22.6007 26.1785 22.6253 26.1441 22.6498C26.1097 22.6744 26.0729 22.6965 26.0385 22.7186C26.0041 22.7407 25.9673 22.7628 25.9304 22.7824C25.8936 22.8046 25.8568 22.8242 25.8175 22.8414C25.7782 22.8586 25.7413 22.8782 25.702 22.8954C25.6677 22.9102 25.6333 22.9249 25.5989 22.9396C25.5891 22.9445 25.5792 22.9494 25.5694 22.9519C25.535 22.9642 25.5031 22.9765 25.4687 22.9887C25.4393 23.001 25.4098 23.0108 25.3779 23.0207C25.3582 23.0256 25.3386 23.0329 25.3189 23.0379C25.314 23.0379 25.3091 23.0403 25.3042 23.0428C25.2477 23.06 25.1912 23.0747 25.1323 23.0894C25.0954 23.0993 25.0561 23.1066 25.0168 23.114C24.9923 23.1189 24.9653 23.1238 24.9407 23.1263C24.9383 23.1263 24.9333 23.1263 24.9284 23.1263C24.899 23.1312 24.8646 23.1361 24.8351 23.1386C24.8179 23.141 24.8007 23.1435 24.7811 23.1435C24.7565 23.1459 24.7295 23.1484 24.705 23.1508C24.6706 23.1533 24.6362 23.1557 24.5993 23.1557C24.5822 23.1557 24.565 23.1557 24.5502 23.1557C24.533 23.1557 24.5183 23.1557 24.5011 23.1557C24.4913 23.1557 24.4815 23.1557 24.4716 23.1557C24.4323 23.1557 24.3955 23.1557 24.3562 23.1533C24.3218 23.1533 24.285 23.1508 24.2506 23.1484C24.231 23.1484 24.2089 23.1435 24.1892 23.1435C24.1597 23.141 24.1327 23.1386 24.1057 23.1336C24.0345 23.1238 23.9657 23.1115 23.8994 23.0968C23.8994 23.0968 23.897 23.0968 23.8945 23.0968C23.8528 23.087 23.811 23.0772 23.7717 23.0673C23.73 23.0551 23.6882 23.0428 23.6489 23.0305C23.7005 22.8561 23.7324 22.6744 23.7373 22.4853C23.7373 22.4558 23.7373 22.4263 23.7373 22.3944C23.7373 22.3527 23.7373 22.3134 23.7349 22.2741C23.7226 22.0211 23.6661 21.7804 23.5752 21.557C23.6121 21.5177 23.6514 21.4759 23.6931 21.4342C23.703 21.4243 23.7128 21.4145 23.7226 21.4047C24.0419 21.0781 24.4373 20.7121 24.8891 20.4199C24.9137 20.4052 24.9358 20.3904 24.9604 20.3757C24.9874 20.3585 25.0144 20.3438 25.039 20.3266C25.093 20.2946 25.1495 20.2627 25.2059 20.2332C25.2305 20.2185 25.2575 20.2038 25.2845 20.1915C25.3975 20.135 25.5105 20.0834 25.6235 20.0368C25.6259 20.0368 25.6284 20.0368 25.6308 20.0343V20.0368ZM24.9456 18.5559C25.0635 18.5362 25.1814 18.5731 25.2649 18.6566C25.3484 18.7401 25.3852 18.8579 25.3656 18.9758C25.3287 19.2042 25.2747 19.4326 25.2059 19.6659C25.0021 19.7593 24.8032 19.8698 24.6116 19.995C24.1131 20.3192 23.6858 20.7146 23.3444 21.0633C23.3346 21.0732 23.3247 21.083 23.3149 21.0928C23.1995 20.9307 23.0644 20.7858 22.9097 20.663C22.9146 20.6581 22.9195 20.6532 22.9244 20.6483C23.2732 20.3069 23.671 19.8796 23.9952 19.3811C24.1426 19.1551 24.2678 18.9169 24.3734 18.6762C24.565 18.6246 24.7565 18.5853 24.9456 18.5559ZM20.4514 21.0191C20.5103 20.9749 20.5692 20.9332 20.6331 20.8988C20.7804 20.8128 20.9401 20.7514 21.1095 20.7121C21.2323 20.6827 21.3625 20.6679 21.4951 20.6679C21.6965 20.6679 21.8881 20.7023 22.0673 20.7662C22.2392 20.8251 22.3964 20.9111 22.5389 21.0191C22.7034 21.1419 22.8458 21.2966 22.9564 21.4735C23.0546 21.6282 23.1307 21.8001 23.1749 21.9843C23.2093 22.1169 23.2265 22.2569 23.2265 22.4018C23.2265 22.5467 23.2093 22.6916 23.1725 22.8267C23.1307 22.9961 23.062 23.1533 22.976 23.2982C22.9465 23.3473 22.9122 23.3964 22.8778 23.4406C22.7525 23.6076 22.5953 23.7525 22.4185 23.8655C22.2638 23.9662 22.0919 24.0399 21.9077 24.0841C21.7751 24.116 21.6376 24.1332 21.4976 24.1332C21.3993 24.1332 21.3036 24.1258 21.2127 24.1086C21.0359 24.0792 20.8713 24.0251 20.7166 23.9465C20.6675 23.922 20.6184 23.895 20.5742 23.863C20.3973 23.7501 20.2402 23.6076 20.1149 23.4406C20.0805 23.394 20.0461 23.3473 20.0167 23.2982C19.9283 23.1533 19.862 22.9937 19.8177 22.8267C19.7834 22.6916 19.7637 22.5491 19.7637 22.4018C19.7637 22.2544 19.7809 22.1194 19.8153 21.9843C19.8595 21.8026 19.9332 21.6282 20.0339 21.4735C20.1444 21.2991 20.2868 21.1444 20.4514 21.0216V21.0191ZM21.7996 17.3255C21.8168 17.3107 21.834 17.296 21.8512 17.2813C22.3178 16.8761 23.0423 16.5077 23.7152 16.5077C23.7742 16.5077 23.8331 16.5101 23.8921 16.5175C23.9854 16.5273 24.0517 16.547 24.091 16.5764C24.145 16.6182 24.1818 16.7189 24.199 16.8613C24.2089 16.9497 24.2138 17.0406 24.2138 17.1364C24.2138 17.1708 24.2138 17.2076 24.2113 17.242C24.2089 17.3304 24.199 17.4213 24.1868 17.5146C24.1794 17.5711 24.1696 17.6276 24.1573 17.684C24.1524 17.7135 24.145 17.7405 24.1401 17.77C24.1204 17.8609 24.0959 17.9542 24.0664 18.0475C24.0591 18.0721 24.0517 18.0942 24.0443 18.1187C24.0369 18.1482 24.0271 18.1777 24.0148 18.2071C24.0148 18.217 24.0099 18.2243 24.005 18.2342C24.0026 18.2415 24.0001 18.2513 23.9952 18.2612C23.9854 18.2882 23.9756 18.3152 23.9657 18.3422C23.9559 18.3692 23.9436 18.3962 23.9338 18.4233C23.9142 18.4724 23.8921 18.519 23.87 18.5682C23.8577 18.5976 23.8454 18.6246 23.8307 18.6517C23.8036 18.7081 23.7766 18.7622 23.7447 18.8162C23.73 18.8432 23.7152 18.8702 23.698 18.8997C23.6784 18.9365 23.6563 18.9709 23.6342 19.0078C23.6121 19.0421 23.59 19.079 23.5679 19.1134C23.2732 19.5677 22.9072 19.9631 22.5831 20.2799C22.5708 20.2922 22.5585 20.3045 22.5438 20.3167C22.5192 20.3413 22.4947 20.3659 22.4701 20.388C22.1877 20.2504 21.8709 20.1694 21.5369 20.1645C21.5246 20.1645 21.5098 20.1645 21.4951 20.1645C21.4706 20.1645 21.446 20.1645 21.4239 20.1645C21.252 20.1694 21.0825 20.1939 20.9229 20.2357C20.9229 20.2332 20.9229 20.2308 20.9229 20.2283C20.9155 20.2013 20.9082 20.1743 20.9008 20.1473C20.891 20.1055 20.8811 20.0638 20.8738 20.022C20.8689 19.9999 20.8664 19.9778 20.8615 19.9557C20.8566 19.9336 20.8541 19.914 20.8517 19.8919C20.8418 19.8256 20.8345 19.7593 20.832 19.6929C20.832 19.6659 20.8271 19.6389 20.8271 19.6119C20.8271 19.5849 20.8271 19.5579 20.8271 19.5309C20.8271 19.4916 20.8271 19.4547 20.8296 19.4154C20.8296 19.3982 20.8296 19.3811 20.8296 19.3614C20.8296 19.3442 20.8296 19.3246 20.8345 19.3074C20.8345 19.2926 20.8345 19.2779 20.8369 19.2656C20.8369 19.2583 20.8369 19.2484 20.8369 19.2411C20.8394 19.2116 20.8418 19.1846 20.8468 19.1551C20.8468 19.1428 20.8492 19.1306 20.8517 19.1183C20.8517 19.1084 20.8541 19.0986 20.8566 19.0888C20.859 19.0642 20.864 19.0421 20.8689 19.0176C20.8762 18.9685 20.8861 18.9193 20.8983 18.8727C20.9082 18.8309 20.918 18.7867 20.9303 18.745C20.972 18.5903 21.0285 18.438 21.0948 18.2931C21.1145 18.2464 21.1366 18.2022 21.1611 18.158C21.1832 18.1163 21.2053 18.0745 21.2299 18.0352C21.2348 18.0229 21.2422 18.0107 21.2495 18.0008C21.2667 17.9689 21.2864 17.937 21.3085 17.9051C21.3404 17.851 21.3772 17.8019 21.4141 17.7528C21.4386 17.7184 21.4656 17.684 21.4902 17.6521C21.5835 17.5367 21.6842 17.4286 21.7947 17.3279L21.7996 17.3255ZM18.7936 16.8589C18.8108 16.7164 18.8477 16.6182 18.9017 16.574C18.9385 16.5421 19.0048 16.5224 19.1006 16.515C19.1596 16.5101 19.2185 16.5052 19.2774 16.5052C19.9528 16.5052 20.6748 16.8736 21.1415 17.2788C20.7583 17.7332 20.4956 18.2808 20.3826 18.8604C20.3482 19.0372 20.3261 19.2165 20.3212 19.3982C20.3212 19.44 20.3212 19.4842 20.3212 19.5284C20.3212 19.7838 20.3507 20.0343 20.4096 20.2725C20.0854 19.9533 19.7171 19.5579 19.4248 19.106C19.3929 19.0544 19.3609 19.0053 19.3315 18.9537C19.2087 18.745 19.1055 18.5313 19.022 18.3152C18.828 17.8117 18.7445 17.3009 18.7986 16.8613L18.7936 16.8589ZM17.6762 18.7106C17.745 18.6394 17.8383 18.6001 17.9365 18.6001C17.9537 18.6001 17.9734 18.6001 17.993 18.605C18.2067 18.6369 18.4253 18.6811 18.6463 18.7401C18.7445 18.9611 18.8624 19.1772 18.9975 19.3835C19.3217 19.8821 19.7195 20.3094 20.0682 20.6507C20.0732 20.6557 20.0781 20.663 20.083 20.6655C19.9307 20.7883 19.7932 20.9356 19.6778 21.0953C19.6679 21.0854 19.6606 21.0756 19.6507 21.0658C19.3094 20.7171 18.8821 20.3192 18.3835 19.995C18.1723 19.8575 17.9513 19.7372 17.7253 19.6389C17.6664 19.4351 17.6173 19.2312 17.5804 19.0323C17.5583 18.9144 17.5927 18.7966 17.6762 18.7106ZM15.5052 20.2774C15.5052 20.2185 15.5077 20.1596 15.515 20.1006C15.5249 20.0073 15.5445 19.941 15.574 19.9017C15.6157 19.8477 15.7164 19.8108 15.8589 19.7936C16.0234 19.774 16.2002 19.774 16.382 19.7936C16.4065 19.7936 16.4286 19.7986 16.4532 19.801C16.4802 19.8035 16.5072 19.8059 16.5342 19.8133C16.5465 19.8133 16.5612 19.8157 16.5735 19.8182C16.6177 19.8231 16.6619 19.8329 16.7086 19.8428C16.7503 19.8501 16.7896 19.8599 16.8314 19.8698C16.9321 19.8943 17.0303 19.9213 17.131 19.9557C17.1556 19.9631 17.1801 19.9729 17.2071 19.9803C17.2415 19.9926 17.2784 20.0048 17.3127 20.0196C17.3692 20.0417 17.4257 20.0638 17.4797 20.0883C17.5068 20.1006 17.5338 20.1129 17.5632 20.1252C17.6197 20.1497 17.6738 20.1768 17.7278 20.2062C17.7548 20.221 17.7818 20.2357 17.8113 20.2504C17.8653 20.2799 17.9193 20.3094 17.9734 20.3438C17.9857 20.3487 17.9955 20.356 18.0078 20.3659C18.0421 20.3855 18.0765 20.4076 18.1084 20.4297C18.5628 20.7244 18.9582 21.0903 19.275 21.4145C19.2873 21.4268 19.2996 21.4391 19.3094 21.4514C19.3487 21.4907 19.3855 21.5275 19.4199 21.5668C19.3266 21.8001 19.2701 22.0506 19.2603 22.3158C19.2603 22.3453 19.2603 22.3748 19.2603 22.4042C19.2603 22.446 19.2603 22.4853 19.2627 22.5246C19.2725 22.7039 19.302 22.8758 19.3511 23.0403C19.3266 23.0477 19.2996 23.0575 19.275 23.0649C19.2578 23.0698 19.2406 23.0747 19.2234 23.0796C19.1989 23.0845 19.1768 23.0919 19.1522 23.0968C19.1276 23.1017 19.1055 23.1091 19.0834 23.1115C19.054 23.1164 19.0245 23.1238 18.995 23.1287C18.9778 23.1312 18.9631 23.1336 18.9459 23.1361C18.9238 23.141 18.9042 23.1435 18.882 23.1459C18.8133 23.1557 18.747 23.1631 18.6758 23.1656C18.661 23.1656 18.6463 23.1656 18.6291 23.168C18.5947 23.168 18.5628 23.168 18.5284 23.168C18.4891 23.168 18.4498 23.168 18.4105 23.1656C18.3811 23.1656 18.3516 23.1656 18.3246 23.1607C18.3197 23.1607 18.3172 23.1607 18.3123 23.1607C18.2877 23.1607 18.2607 23.1557 18.2362 23.1533C18.2165 23.1533 18.1944 23.1484 18.1748 23.1459C18.1527 23.1459 18.133 23.141 18.1134 23.1386C18.1109 23.1386 18.1084 23.1386 18.1035 23.1386C18.0986 23.1386 18.0913 23.1386 18.0863 23.1361C18.0593 23.1312 18.0323 23.1287 18.0053 23.1238C17.939 23.1115 17.8727 23.0968 17.8064 23.0796C17.7794 23.0722 17.7523 23.0673 17.7278 23.0575C17.6615 23.0403 17.5952 23.0182 17.5313 22.9937C17.5117 22.9863 17.4896 22.9789 17.4699 22.9691C17.4552 22.9642 17.4404 22.9593 17.4282 22.9519C17.4036 22.9421 17.3766 22.9323 17.352 22.92C17.3275 22.9102 17.3054 22.9003 17.2833 22.8881C17.2563 22.8758 17.2317 22.8635 17.2071 22.8512C17.1605 22.8291 17.1138 22.8046 17.0672 22.7775C17.0328 22.7579 16.9959 22.7358 16.9616 22.7161C16.9223 22.6916 16.8854 22.6695 16.8486 22.6449C16.8142 22.6228 16.7823 22.5983 16.7503 22.5737C16.716 22.5491 16.6816 22.5221 16.6497 22.4976C16.5342 22.4042 16.4262 22.3036 16.3255 22.193C16.3107 22.1758 16.296 22.1587 16.2813 22.1415C15.8761 21.6748 15.5077 20.9504 15.5077 20.2774H15.5052ZM17.4601 24.9166C17.4085 24.9387 17.3569 24.9608 17.3054 24.9805H17.3005C17.1949 25.0222 17.0893 25.0566 16.9861 25.0861C16.9444 25.0983 16.9026 25.1106 16.8609 25.1204C16.8289 25.1278 16.797 25.1376 16.7675 25.1426C16.7626 25.1426 16.7553 25.145 16.7479 25.1475C16.7111 25.1548 16.6767 25.1622 16.6398 25.1696C16.6226 25.172 16.6079 25.1745 16.5907 25.1769C16.549 25.1843 16.5072 25.1917 16.4655 25.1941C16.4409 25.199 16.4163 25.2015 16.3918 25.2015C16.3697 25.2039 16.35 25.2064 16.3279 25.2064H16.323C16.2935 25.2064 16.2641 25.2113 16.2346 25.2113C16.1069 25.2162 15.9841 25.2113 15.8662 25.199C15.7238 25.1818 15.6256 25.145 15.5813 25.091C15.5494 25.0541 15.5298 24.9878 15.5224 24.8921C15.5175 24.8331 15.5126 24.7742 15.5126 24.7152C15.5126 24.0399 15.881 23.3178 16.2862 22.8512C16.3206 22.8782 16.3525 22.9052 16.3869 22.9323C16.4065 22.947 16.4262 22.9617 16.4458 22.9765C16.4802 23.001 16.5146 23.028 16.549 23.0526C16.5833 23.0772 16.6202 23.1017 16.6546 23.1238C16.6889 23.1459 16.7258 23.168 16.7602 23.1877C16.8044 23.2147 16.8486 23.2417 16.8952 23.2638C16.9124 23.2736 16.9272 23.281 16.9444 23.2884C17.0156 23.3252 17.0917 23.362 17.1678 23.394C17.2047 23.4112 17.244 23.4259 17.2808 23.4406C17.3299 23.4603 17.379 23.4775 17.4282 23.4947C17.4552 23.5045 17.4822 23.5118 17.5068 23.5192C17.5362 23.529 17.5632 23.5364 17.5927 23.5438C17.6074 23.5487 17.6222 23.5536 17.6369 23.5561C17.6418 23.5561 17.6492 23.561 17.6541 23.561C17.6787 23.5683 17.7032 23.5732 17.7278 23.5782C17.7327 23.5782 17.7352 23.5806 17.7401 23.5806C17.7744 23.5904 17.8113 23.5978 17.8481 23.6052C17.885 23.6125 17.9218 23.6199 17.9611 23.6248C17.9783 23.6273 17.9955 23.6297 18.0127 23.6322C18.0397 23.6371 18.0667 23.6396 18.0937 23.6445C18.0937 23.6445 18.0962 23.6445 18.0986 23.6445C18.106 23.6445 18.1158 23.6445 18.1232 23.6469H18.1281C18.1674 23.6518 18.2091 23.6567 18.2484 23.6592C18.2804 23.6617 18.3123 23.6641 18.3442 23.6666C18.3565 23.6666 18.3712 23.6666 18.386 23.6666C18.4326 23.6666 18.4817 23.669 18.5284 23.669C18.7838 23.669 19.0343 23.6396 19.2725 23.5806C18.9533 23.9048 18.5579 24.2732 18.106 24.5654C18.0741 24.5851 18.0446 24.6047 18.0127 24.6244C17.9857 24.6391 17.9611 24.6563 17.9341 24.671C17.9022 24.6907 17.8702 24.7103 17.8358 24.7275C17.8039 24.7447 17.772 24.7619 17.7401 24.7791C17.6909 24.8036 17.6418 24.8282 17.5927 24.8528C17.5485 24.8724 17.5043 24.8945 17.4625 24.9117L17.4601 24.9166ZM18.0446 26.2428C17.9267 26.2624 17.8088 26.2256 17.7253 26.1396C17.6418 26.0561 17.605 25.9383 17.6246 25.8204C17.6492 25.6657 17.6836 25.5109 17.7229 25.3538C17.9464 25.2531 18.1698 25.1352 18.3811 24.9977C18.9263 24.644 19.3855 24.2019 19.7416 23.8311L19.7588 23.8139C19.8841 23.9686 20.029 24.1062 20.1935 24.2216C20.1861 24.229 20.1763 24.2388 20.1689 24.2462C19.7981 24.6023 19.3511 25.064 18.995 25.6141C18.8943 25.7713 18.801 25.9333 18.7224 26.0954C18.494 26.1593 18.2681 26.2084 18.0446 26.2452V26.2428ZM19.275 28.4875C19.2161 28.4875 19.1571 28.485 19.0982 28.4776C19.0024 28.4678 18.9385 28.4482 18.8992 28.4187C18.8452 28.377 18.8059 28.2763 18.7912 28.1338C18.7764 28.011 18.7715 27.8809 18.7789 27.7482C18.7789 27.7089 18.7838 27.6672 18.7863 27.6279C18.7887 27.5886 18.7936 27.5469 18.7986 27.5076C18.8035 27.4658 18.8108 27.4241 18.8157 27.3848C18.8207 27.3553 18.828 27.3234 18.8329 27.2939C18.8378 27.2644 18.8452 27.2325 18.8526 27.2006C18.8575 27.1785 18.8624 27.1564 18.8673 27.1367C18.8771 27.095 18.8894 27.0532 18.9017 27.0115C18.914 26.9697 18.9263 26.928 18.941 26.8862C18.9533 26.8445 18.968 26.8027 18.9852 26.7585C18.9999 26.7168 19.0147 26.675 19.0319 26.6333C19.0466 26.594 19.0638 26.5571 19.0785 26.5178C19.1497 26.3582 19.2308 26.1986 19.3217 26.0439C19.3511 25.9923 19.3831 25.9407 19.415 25.8916C19.4248 25.8769 19.4322 25.8621 19.4444 25.8498C19.4444 25.8498 19.4445 25.8449 19.4494 25.8449C19.4494 25.8449 19.4494 25.84 19.4543 25.84C19.4862 25.7885 19.5206 25.7393 19.5574 25.6927C19.5943 25.6386 19.6336 25.5871 19.6728 25.5379C19.7342 25.4569 19.7981 25.3783 19.8644 25.3022C19.889 25.2727 19.9111 25.2457 19.9381 25.2187C19.9676 25.1843 19.997 25.1524 20.0265 25.118C20.0682 25.0713 20.11 25.0271 20.1542 24.9829C20.2377 24.8945 20.3237 24.8086 20.4047 24.73C20.3924 24.7742 20.3851 24.8184 20.3752 24.8626C20.3703 24.8921 20.363 24.9215 20.358 24.9485C20.3531 24.9756 20.3482 25.0026 20.3458 25.032C20.3433 25.0517 20.3408 25.0713 20.3384 25.091C20.3335 25.118 20.331 25.145 20.3286 25.172C20.3261 25.2015 20.3237 25.231 20.3212 25.2629C20.3212 25.2801 20.3187 25.2948 20.3187 25.312C20.3187 25.3218 20.3187 25.3317 20.3187 25.3415C20.3187 25.3759 20.3163 25.4127 20.3163 25.4471C20.3163 25.4569 20.3163 25.4643 20.3163 25.4741C20.3163 25.5208 20.3163 25.5699 20.3187 25.6165C20.3187 25.6264 20.3187 25.6362 20.3187 25.646C20.3187 25.6755 20.3212 25.7074 20.3237 25.7369C20.3261 25.7786 20.331 25.8228 20.3359 25.8646C20.3359 25.8793 20.3384 25.8941 20.3408 25.9088C20.3433 25.9383 20.3482 25.9677 20.3531 25.9972C20.3531 25.9972 20.3531 26.0119 20.3556 26.0168C20.3605 26.0463 20.3654 26.0758 20.3703 26.1028C20.3777 26.1446 20.3875 26.1863 20.3949 26.2256C20.4047 26.2673 20.4145 26.3066 20.4243 26.3459C20.4293 26.368 20.4366 26.3901 20.4415 26.4098C20.4489 26.4393 20.4587 26.4687 20.4661 26.4957C20.471 26.5178 20.4784 26.54 20.4882 26.5621C20.5128 26.6406 20.5422 26.7168 20.5742 26.7929C20.5791 26.8101 20.5864 26.8248 20.5938 26.842C20.6061 26.869 20.6184 26.8961 20.6306 26.9231C20.6405 26.9476 20.6527 26.9697 20.6626 26.9918C20.6699 27.009 20.6773 27.0262 20.6871 27.041C20.6994 27.0655 20.7117 27.0876 20.7215 27.1097C20.7436 27.1515 20.7657 27.1932 20.7903 27.2325C20.8124 27.2718 20.8369 27.3086 20.8615 27.3479C20.8762 27.3725 20.891 27.3971 20.9082 27.4192C20.9131 27.4314 20.9229 27.4413 20.9303 27.4511C20.9352 27.4609 20.9425 27.4707 20.9499 27.4806C20.9696 27.5076 20.9892 27.5346 21.0088 27.5641C21.0211 27.5812 21.0334 27.596 21.0457 27.6107C21.0727 27.6451 21.1022 27.6819 21.1316 27.7163C20.665 28.1215 19.943 28.4899 19.2676 28.4899L19.275 28.4875ZM24.199 28.1338C24.1818 28.2763 24.145 28.3745 24.091 28.4187C24.0541 28.4482 23.9854 28.4703 23.8921 28.4776C23.8331 28.4826 23.7742 28.4875 23.7152 28.4875C23.0399 28.4875 22.3178 28.1166 21.8512 27.7139C21.834 27.6991 21.8168 27.6844 21.7996 27.6697C21.6891 27.569 21.5884 27.4609 21.4951 27.3455C21.4681 27.3136 21.4411 27.2792 21.419 27.2448C21.3944 27.2104 21.3699 27.176 21.3453 27.1416C21.3207 27.1073 21.2986 27.0704 21.2765 27.036C21.252 26.9992 21.2299 26.9599 21.2102 26.9231C21.2004 26.9059 21.193 26.8887 21.1832 26.8715C21.1415 26.7978 21.1046 26.7217 21.0727 26.6431C21.058 26.6112 21.0432 26.5768 21.0309 26.5424C21.0187 26.508 21.0039 26.4736 20.9941 26.4393C20.9843 26.4147 20.9769 26.3901 20.9696 26.3656C20.9573 26.3287 20.945 26.2894 20.9352 26.2526C20.8983 26.1224 20.8713 25.9874 20.8517 25.8523C20.8468 25.8106 20.8418 25.7713 20.8369 25.7295C20.8296 25.6436 20.8247 25.5551 20.8247 25.4667C20.8247 25.4127 20.8247 25.3611 20.8296 25.3071C20.8296 25.2776 20.832 25.2506 20.8345 25.2211C20.8345 25.1892 20.8394 25.1597 20.8443 25.1303C20.8443 25.1131 20.8492 25.0959 20.8517 25.0762C20.8517 25.0566 20.8566 25.0369 20.8615 25.0173C20.8664 24.9878 20.8738 24.9584 20.8787 24.9289C20.8836 24.9043 20.8885 24.8798 20.8934 24.8552C20.9106 24.7864 20.9278 24.7177 20.9524 24.6489L20.9696 24.5949C20.9696 24.5949 20.972 24.5826 20.9745 24.5777C21.1267 24.6145 21.2864 24.6342 21.4485 24.6366C21.4607 24.6366 21.4755 24.6366 21.4902 24.6366C21.5148 24.6366 21.5393 24.6366 21.5639 24.6366C21.8316 24.6293 22.0894 24.5728 22.3252 24.477L22.3596 24.5089C22.3866 24.5335 22.4136 24.5581 22.4382 24.5851C22.4848 24.6293 22.5315 24.6735 22.5782 24.7201C22.6199 24.7594 22.6617 24.8012 22.7009 24.8429C22.7059 24.8478 22.7083 24.8503 22.7132 24.8552C22.7501 24.8921 22.7894 24.9313 22.8262 24.9731C22.8606 25.0075 22.8925 25.0443 22.9269 25.0787C22.9392 25.091 22.9515 25.1057 22.9637 25.1204C23.0792 25.2457 23.1946 25.3808 23.3026 25.5208C23.3247 25.5478 23.3444 25.5748 23.364 25.6018C23.3788 25.619 23.3911 25.6386 23.4058 25.6558C23.4353 25.6976 23.4647 25.7393 23.4942 25.7786C23.5188 25.813 23.5409 25.8498 23.5654 25.8842C23.6833 26.0684 23.7889 26.26 23.8773 26.4515C23.8896 26.481 23.9043 26.5105 23.9166 26.5399C23.9657 26.6529 24.0075 26.7659 24.0443 26.8789C24.0566 26.9157 24.0689 26.9525 24.0787 26.9918C24.1033 27.068 24.1205 27.1441 24.1376 27.2227C24.1401 27.235 24.1426 27.2472 24.145 27.2595C24.1475 27.2718 24.1499 27.2816 24.1524 27.2939C24.1573 27.3136 24.1597 27.3357 24.1647 27.3553C24.1671 27.37 24.1696 27.3848 24.172 27.3971C24.172 27.402 24.1745 27.4093 24.1745 27.4142C24.1794 27.4437 24.1843 27.4732 24.1868 27.5027C24.1917 27.5444 24.1966 27.5837 24.199 27.623C24.204 27.6623 24.2064 27.704 24.2064 27.7433C24.2138 27.876 24.2064 28.0061 24.1941 28.1289L24.199 28.1338ZM25.314 26.0881C25.2305 26.174 25.1151 26.2109 24.9972 26.1937C24.7492 26.1593 24.4962 26.1053 24.2383 26.034C24.1647 25.8916 24.0836 25.7492 23.9952 25.6116C23.6391 25.064 23.1946 24.5998 22.8213 24.2462C22.8115 24.2363 22.8041 24.229 22.7943 24.2216C22.9588 24.1062 23.1037 23.9686 23.229 23.8139C23.2339 23.8188 23.2388 23.8237 23.2462 23.8311C23.5998 24.2019 24.0615 24.644 24.6092 25.0001C24.84 25.1499 25.0807 25.2776 25.3238 25.3832C25.3582 25.5134 25.3852 25.6436 25.4073 25.7713C25.4294 25.8891 25.3951 26.007 25.3116 26.0905L25.314 26.0881ZM27.485 24.7177C27.485 24.7766 27.4826 24.8356 27.4752 24.8945C27.4654 24.9903 27.4457 25.0541 27.4162 25.0934C27.3745 25.1475 27.2738 25.1868 27.1314 25.2015C27.0086 25.2162 26.8784 25.2211 26.7458 25.2138C26.7065 25.2138 26.6647 25.2089 26.6255 25.2064C26.4658 25.1941 26.2988 25.1647 26.1318 25.1229C26.0925 25.1131 26.0508 25.1033 26.0115 25.091C25.9231 25.0664 25.8347 25.0369 25.7462 25.005C25.7364 25.0026 25.7291 24.9977 25.7168 24.9927C25.6775 24.978 25.6382 24.9633 25.5989 24.9461C25.5768 24.9363 25.5522 24.9289 25.5301 24.9166C25.508 24.9068 25.4835 24.897 25.4614 24.8871C25.4368 24.8773 25.4122 24.865 25.3877 24.8528C25.3754 24.8478 25.3631 24.8405 25.3508 24.8356C25.2723 24.7987 25.1912 24.757 25.1151 24.7128C25.0365 24.6686 24.9604 24.6219 24.8842 24.5728C24.4299 24.2781 24.0345 23.9122 23.7177 23.588C23.9584 23.6469 24.2064 23.6764 24.4618 23.6764C24.5085 23.6764 24.5527 23.6764 24.5993 23.6739C24.6116 23.6739 24.6239 23.6739 24.6362 23.6739H24.6436C24.6853 23.6739 24.7271 23.669 24.7688 23.6641C24.8106 23.6617 24.8523 23.6567 24.8916 23.6518C24.9088 23.6518 24.926 23.6469 24.9456 23.6445C24.9505 23.6445 24.9554 23.6445 24.9604 23.6445C24.9898 23.6396 25.0193 23.6346 25.0488 23.6297C25.0832 23.6248 25.1151 23.6174 25.1495 23.6101C25.1593 23.6101 25.1667 23.6076 25.1765 23.6052C25.1814 23.6052 25.1863 23.6052 25.1888 23.6027C25.2231 23.5953 25.26 23.588 25.2944 23.5782C25.3116 23.5757 25.3263 23.5708 25.341 23.5659C25.3582 23.5634 25.3729 23.5585 25.3877 23.5536C25.481 23.529 25.5694 23.4996 25.6578 23.4652C25.6898 23.4529 25.7192 23.4406 25.7487 23.4308C25.7561 23.4308 25.7659 23.4259 25.7733 23.421C25.7905 23.4136 25.8076 23.4062 25.8273 23.3989C25.8641 23.3841 25.8985 23.3694 25.9329 23.3522C25.9624 23.3375 25.9918 23.3227 26.0213 23.308C26.041 23.2982 26.0606 23.2884 26.0802 23.2785C26.2497 23.1901 26.4118 23.087 26.5641 22.9691C26.5788 22.9593 26.5935 22.947 26.6083 22.9347C26.6402 22.9102 26.6721 22.8831 26.704 22.8561C27.1093 23.3227 27.4776 24.0448 27.4776 24.7201L27.485 24.7177Z" fill="#E6AA68"/>
</svg>
