<svg width="39" height="39" viewBox="0 0 39 39" fill="none" xmlns="http://www.w3.org/2000/svg">
<path d="M19.1667 0C8.58667 0 0 8.58667 0 19.1667C0 29.7467 8.58667 38.3333 19.1667 38.3333C29.7467 38.3333 38.3333 29.7467 38.3333 19.1667C38.3333 8.58667 29.7467 0 19.1667 0ZM19.1667 5.75C22.3483 5.75 24.9167 8.31833 24.9167 11.5C24.9167 14.6817 22.3483 17.25 19.1667 17.25C15.985 17.25 13.4167 14.6817 13.4167 11.5C13.4167 8.31833 15.985 5.75 19.1667 5.75ZM19.1667 32.9667C14.375 32.9667 10.1392 30.5133 7.66667 26.795C7.72417 22.9808 15.3333 20.8917 19.1667 20.8917C22.9808 20.8917 30.6092 22.9808 30.6667 26.795C28.1942 30.5133 23.9583 32.9667 19.1667 32.9667Z" fill="#E6AA68"/>
</svg>
